<svg xmlns="http://www.w3.org/2000/svg" width="50.257" height="50.257" viewBox="0 0 50.257 50.257">
  <path id="face" d="M44.872,32H5.385A5.385,5.385,0,0,0,0,37.385V76.872a5.385,5.385,0,0,0,5.385,5.385h15.4V65.171H13.714V57.128h7.067V51c0-6.972,4.151-10.823,10.508-10.823a42.815,42.815,0,0,1,6.228.543v6.843H34.01c-3.456,0-4.534,2.145-4.534,4.345v5.222h7.716l-1.234,8.042H29.475V82.257h15.4a5.385,5.385,0,0,0,5.385-5.385V37.385A5.385,5.385,0,0,0,44.872,32Z" transform="translate(0 -32)" fill="#fff"/>
</svg>
