<svg xmlns="http://www.w3.org/2000/svg" width="50.513" height="50.514" viewBox="0 0 50.513 50.514">
  <path id="insta" d="M25.257,51.242a6.014,6.014,0,1,0,6.017,6.015A6.014,6.014,0,0,0,25.257,51.242ZM39.318,46.62a6.089,6.089,0,0,0-3.429-3.429c-2.368-.935-8.005-.725-10.633-.725s-8.259-.218-10.634.725a6.089,6.089,0,0,0-3.429,3.429c-.934,2.368-.725,8.011-.725,10.636s-.209,8.261.73,10.637a6.089,6.089,0,0,0,3.429,3.429c2.368.935,8.005.725,10.634.725s8.258.218,10.633-.725a6.089,6.089,0,0,0,3.429-3.429c.941-2.368.725-8.011.725-10.636s.216-8.26-.725-10.636ZM25.257,66.5A9.234,9.234,0,1,1,31.8,63.8a9.246,9.246,0,0,1-6.541,2.7Zm9.627-16.721a2.146,2.146,0,1,1,1.53-.63,2.158,2.158,0,0,1-1.53.63ZM45.1,32H5.412A5.412,5.412,0,0,0,0,37.412V77.1a5.412,5.412,0,0,0,5.412,5.412H45.1A5.412,5.412,0,0,0,50.513,77.1V37.412A5.412,5.412,0,0,0,45.1,32Zm-1.93,32.7c-.145,2.89-.805,5.45-2.915,7.554S35.588,75.03,32.7,75.168c-2.978.168-11.906.168-14.883,0-2.89-.145-5.441-.806-7.554-2.915S7.487,67.583,7.349,64.7c-.168-2.979-.168-11.908,0-14.883.145-2.89.8-5.45,2.915-7.554s4.676-2.769,7.554-2.907c2.978-.168,11.906-.168,14.883,0,2.89.145,5.449.806,7.554,2.915s2.777,4.67,2.915,7.56C43.339,52.8,43.339,61.717,43.171,64.7Z" transform="translate(0 -32)" fill="#fff"/>
</svg>
