<svg xmlns="http://www.w3.org/2000/svg" width="50.514" height="50.514" viewBox="0 0 50.514 50.514">
  <path id="link" d="M46.905,32H3.6A3.624,3.624,0,0,0,0,35.642v43.23a3.624,3.624,0,0,0,3.6,3.642H46.905a3.633,3.633,0,0,0,3.608-3.642V35.642A3.633,3.633,0,0,0,46.905,32ZM15.267,75.3H7.78V51.191h7.5V75.3ZM11.523,47.9a4.341,4.341,0,1,1,4.341-4.341A4.343,4.343,0,0,1,11.523,47.9ZM43.331,75.3H35.844V63.571c0-2.8-.056-6.393-3.89-6.393-3.9,0-4.5,3.044-4.5,6.19V75.3H19.969V51.191h7.182v3.292h.1a7.886,7.886,0,0,1,7.092-3.89c7.577,0,8.986,4.995,8.986,11.49Z" transform="translate(0 -32)" fill="#fff"/>
</svg>
