<svg xmlns="http://www.w3.org/2000/svg" width="1209" height="280" viewBox="0 0 1209 280"><g transform="translate(-356 -3927)"><rect width="1209" height="280" transform="translate(356 3927)" fill="#fff"/><text transform="translate(960 3994)" fill="#203757" font-size="30" font-family="Poppins-Bold, Poppins" font-weight="700"><tspan x="-106.56" y="0">TECNOLOGIAS</tspan></text><g transform="translate(73)"><path d="M0,32l6.154,69.8,27.7,9.2,27.7-9.2L67.714,32ZM55.212,46.107l-.846,8.341L34.033,63.142l-.053.018H53.642L51.385,89.01,34.069,94.071,16.646,88.922,15.518,75.891h8.623l.564,6.754,9.275,2.345,9.646-2.716.652-10.862-29.325-.088v-.018l-.035.018-.635-8.165,19.768-8.235,1.146-.476H13.525L12.5,46.107Z" transform="translate(490 4035)" fill="#203757"/><path d="M0,32l6.154,69.8,27.7,9.2,27.7-9.2L67.714,32ZM55.212,46.107l-.846,8.341L34.033,63.142l-.053.018H53.642L51.385,89.01,34.069,94.071,16.646,88.922,15.518,75.891h8.623l.564,6.754,9.275,2.345,9.646-2.716.652-10.862-29.325-.088v-.018l-.035.018-.635-8.165,19.768-8.235,1.146-.476H13.525L12.5,46.107Z" transform="translate(923.714 4035)" fill="#203757"/><path d="M70.536,32H8.464A8.466,8.466,0,0,0,0,40.464v62.071A8.466,8.466,0,0,0,8.464,111H70.536A8.466,8.466,0,0,0,79,102.536V40.464A8.466,8.466,0,0,0,70.536,32ZM42.992,93.613c0,7.688-4.514,11.2-11.092,11.2-5.943,0-9.381-3.068-11.145-6.789l6.048-3.65c1.164,2.063,2.222,3.809,4.779,3.809,2.433,0,3.985-.952,3.985-4.673V68.273h7.424v25.34Zm17.563,11.2c-6.895,0-11.356-3.28-13.525-7.583l6.048-3.492c1.587,2.592,3.668,4.514,7.318,4.514,3.068,0,5.043-1.534,5.043-3.668,0-2.539-2.01-3.439-5.414-4.937l-1.852-.794c-5.361-2.275-8.905-5.149-8.905-11.2,0-5.572,4.25-9.8,10.862-9.8,4.726,0,8.112,1.64,10.545,5.943l-5.784,3.7c-1.27-2.275-2.645-3.174-4.779-3.174A3.222,3.222,0,0,0,56.57,77.5c0,2.222,1.375,3.121,4.567,4.514l1.852.794c6.313,2.7,9.857,5.467,9.857,11.674,0,6.666-5.255,10.333-12.291,10.333Z" transform="translate(631 4035)" fill="#203757"/><path d="M70.536,32H8.464A8.466,8.466,0,0,0,0,40.464v62.071A8.466,8.466,0,0,0,8.464,111H70.536A8.466,8.466,0,0,0,79,102.536V40.464A8.466,8.466,0,0,0,70.536,32ZM42.992,93.613c0,7.688-4.514,11.2-11.092,11.2-5.943,0-9.381-3.068-11.145-6.789l6.048-3.65c1.164,2.063,2.222,3.809,4.779,3.809,2.433,0,3.985-.952,3.985-4.673V68.273h7.424v25.34Zm17.563,11.2c-6.895,0-11.356-3.28-13.525-7.583l6.048-3.492c1.587,2.592,3.668,4.514,7.318,4.514,3.068,0,5.043-1.534,5.043-3.668,0-2.539-2.01-3.439-5.414-4.937l-1.852-.794c-5.361-2.275-8.905-5.149-8.905-11.2,0-5.572,4.25-9.8,10.862-9.8,4.726,0,8.112,1.64,10.545,5.943l-5.784,3.7c-1.27-2.275-2.645-3.174-4.779-3.174A3.222,3.222,0,0,0,56.57,77.5c0,2.222,1.375,3.121,4.567,4.514l1.852.794c6.313,2.7,9.857,5.467,9.857,11.674,0,6.666-5.255,10.333-12.291,10.333Z" transform="translate(1064.714 4035)" fill="#203757"/><path d="M0,32l6.154,69.8L33.769,111l27.791-9.2L67.714,32ZM54.348,54.554H21.937l.723,8.711H53.625l-2.4,26.169L33.963,94.195v.053h-.194l-17.4-4.814L15.306,76.067h8.411l.617,6.719,9.434,2.557,9.469-2.557L44.3,71.817H14.865L12.608,46.142H55.124Z" transform="translate(783 4035)" fill="#203757"/><path d="M0,32l6.154,69.8L33.769,111l27.791-9.2L67.714,32ZM54.348,54.554H21.937l.723,8.711H53.625l-2.4,26.169L33.963,94.195v.053h-.194l-17.4-4.814L15.306,76.067h8.411l.617,6.719,9.434,2.557,9.469-2.557L44.3,71.817H14.865L12.608,46.142H55.124Z" transform="translate(1216.714 4035)" fill="#203757"/></g></g></svg>